<?xml version="1.0" encoding="utf-8"?>
<!-- Generator: Adobe Illustrator 21.1.0, SVG Export Plug-In . SVG Version: 6.00 Build 0)  -->
<svg version="1.1" id="Layer_1" xmlns="http://www.w3.org/2000/svg" xmlns:xlink="http://www.w3.org/1999/xlink" x="0px" y="0px"
	 width="296px" height="45px" viewBox="0 0 296 45" style="enable-background:new 0 0 296 45;" xml:space="preserve">
<style type="text/css">
	.st0{fill:#231F20;}
	.st1{fill:#C41230;}
</style>
<g id="Logo">
	<g id="ssl_store_2_">
		<path class="st0" d="M199.7,18.7c0,1.7-0.6,3.1-1.9,4.1c-1.2,1-3,1.5-5.2,1.5c-2,0-3.8-0.4-5.4-1.1v-3.8c1.3,0.6,2.4,1,3.3,1.2
			c0.9,0.2,1.7,0.4,2.4,0.4c0.9,0,1.6-0.2,2-0.5c0.5-0.3,0.7-0.8,0.7-1.5c0-0.4-0.1-0.7-0.3-1c-0.2-0.3-0.5-0.6-0.9-0.8
			c-0.4-0.3-1.2-0.7-2.5-1.3c-1.2-0.5-2-1.1-2.6-1.6c-0.6-0.5-1.1-1.1-1.4-1.8c-0.3-0.7-0.5-1.5-0.5-2.4c0-1.7,0.6-3,1.7-4
			s2.7-1.4,4.7-1.4c1,0,1.9,0.1,2.8,0.4c0.9,0.2,1.8,0.6,2.8,1l-1.3,3.1c-1-0.4-1.9-0.7-2.5-0.9c-0.7-0.2-1.3-0.2-2-0.2
			c-0.8,0-1.4,0.2-1.8,0.5c-0.4,0.4-0.6,0.8-0.6,1.4c0,0.4,0.1,0.7,0.2,0.9c0.2,0.3,0.4,0.5,0.8,0.8c0.4,0.2,1.2,0.7,2.6,1.3
			c1.8,0.9,3,1.7,3.7,2.6C199.3,16.4,199.7,17.5,199.7,18.7z"/>
		<path class="st0" d="M214.4,18.7c0,1.7-0.6,3.1-1.9,4.1c-1.2,1-3,1.5-5.2,1.5c-2,0-3.8-0.4-5.4-1.1v-3.8c1.3,0.6,2.4,1,3.3,1.2
			c0.9,0.2,1.7,0.4,2.4,0.4c0.9,0,1.6-0.2,2-0.5c0.5-0.3,0.7-0.8,0.7-1.5c0-0.4-0.1-0.7-0.3-1c-0.2-0.3-0.5-0.6-0.9-0.8
			c-0.4-0.3-1.2-0.7-2.5-1.3c-1.2-0.5-2-1.1-2.6-1.6c-0.6-0.5-1.1-1.1-1.4-1.8c-0.3-0.7-0.5-1.5-0.5-2.4c0-1.7,0.6-3,1.7-4
			s2.7-1.4,4.7-1.4c1,0,1.9,0.1,2.8,0.4c0.9,0.2,1.8,0.6,2.8,1L213,9.2c-1-0.4-1.9-0.7-2.5-0.9c-0.7-0.2-1.3-0.2-2-0.2
			c-0.8,0-1.4,0.2-1.8,0.5c-0.4,0.4-0.6,0.8-0.6,1.4c0,0.4,0.1,0.7,0.2,0.9c0.2,0.3,0.4,0.5,0.8,0.8c0.4,0.2,1.2,0.7,2.6,1.3
			c1.8,0.9,3,1.7,3.7,2.6C214.1,16.4,214.4,17.5,214.4,18.7z"/>
		<path class="st0" d="M217.8,24V4.9h4v15.8h7.7V24H217.8z"/>
		<path class="st0" d="M244.9,19.1c0,1.6-0.6,2.9-1.8,3.8c-1.2,0.9-2.7,1.4-4.7,1.4c-2.3,0-4.1-0.3-5.4-0.8v-1.3
			c1.4,0.6,3.1,0.9,5.3,0.9c1.6,0,2.8-0.4,3.7-1.1c0.9-0.7,1.4-1.7,1.4-2.8c0-0.7-0.2-1.3-0.5-1.8c-0.3-0.5-0.8-0.9-1.5-1.3
			c-0.7-0.4-1.7-0.8-3-1.3c-2-0.7-3.3-1.4-4-2.2c-0.7-0.8-1.1-1.8-1.1-3.1c0-1.4,0.6-2.6,1.7-3.5c1.1-0.9,2.6-1.4,4.3-1.4
			c1.8,0,3.5,0.3,5.1,1l-0.5,1.1c-1.6-0.7-3.1-1-4.5-1c-1.4,0-2.5,0.3-3.4,1s-1.3,1.5-1.3,2.7c0,0.7,0.1,1.3,0.4,1.7
			c0.3,0.5,0.7,0.9,1.3,1.2c0.6,0.4,1.6,0.8,3,1.3c1.5,0.5,2.6,1,3.4,1.5c0.7,0.5,1.3,1,1.6,1.6C244.7,17.5,244.9,18.2,244.9,19.1z"
			/>
		<path class="st0" d="M252.4,23.1c0.8,0,1.5-0.1,2.1-0.2v1c-0.6,0.2-1.3,0.3-2.2,0.3c-1.3,0-2.2-0.3-2.8-1
			c-0.6-0.7-0.9-1.7-0.9-3.2V11h-2.1v-0.8l2.1-0.6l0.7-3.2h0.7v3.4h4.2V11H250v9c0,1.1,0.2,1.9,0.6,2.4
			C251,22.9,251.6,23.1,252.4,23.1z"/>
		<path class="st0" d="M269.3,16.9c0,2.3-0.6,4.1-1.7,5.4c-1.1,1.3-2.7,2-4.6,2c-1.2,0-2.3-0.3-3.3-0.9c-0.9-0.6-1.7-1.5-2.2-2.6
			c-0.5-1.1-0.8-2.4-0.8-3.9c0-2.3,0.6-4.1,1.7-5.4c1.1-1.3,2.7-1.9,4.6-1.9c2,0,3.5,0.7,4.6,2C268.8,12.8,269.3,14.6,269.3,16.9z
			 M258.1,16.9c0,2,0.4,3.5,1.3,4.6c0.9,1.1,2.1,1.6,3.6,1.6c1.6,0,2.8-0.5,3.6-1.6c0.9-1.1,1.3-2.6,1.3-4.6c0-2-0.4-3.5-1.3-4.6
			c-0.9-1.1-2.1-1.6-3.7-1.6c-1.6,0-2.8,0.5-3.6,1.6C258.5,13.4,258.1,15,258.1,16.9z"/>
		<path class="st0" d="M278.9,9.6c0.6,0,1.2,0.1,1.9,0.2l-0.2,1.2c-0.6-0.1-1.2-0.2-1.8-0.2c-1.2,0-2.2,0.5-3,1.5
			c-0.8,1-1.2,2.3-1.2,3.9V24h-1.3V9.8h1.1l0.1,2.6h0.1c0.6-1,1.2-1.8,1.9-2.2C277.1,9.8,277.9,9.6,278.9,9.6z"/>
		<path class="st0" d="M289.4,24.3c-2.1,0-3.7-0.6-4.8-1.9c-1.2-1.3-1.7-3.1-1.7-5.3c0-2.3,0.6-4.1,1.7-5.4c1.1-1.4,2.6-2,4.5-2
			c1.7,0,3,0.6,4,1.8c1,1.2,1.5,2.8,1.5,4.8v1h-10.2c0,2,0.5,3.4,1.4,4.5c0.9,1,2.2,1.5,3.8,1.5c0.8,0,1.5-0.1,2.1-0.2
			c0.6-0.1,1.4-0.4,2.3-0.7v1.2c-0.8,0.3-1.5,0.6-2.2,0.7C291,24.2,290.2,24.3,289.4,24.3z M289,10.7c-1.4,0-2.5,0.5-3.3,1.4
			c-0.8,0.9-1.3,2.2-1.5,3.9h8.8c0-1.6-0.4-2.9-1.1-3.9C291.3,11.2,290.3,10.7,289,10.7z"/>
	</g>
	<g id="authorized_comodo_site_2_">
		<path class="st0" d="M7.1,40.8H2.5l-1.6,4H0l4.6-11.5h0.5l4.5,11.5H8.7L7.1,40.8z M2.8,40.1h4.1l-1.6-4.1
			c-0.1-0.3-0.3-0.8-0.5-1.3c-0.1,0.5-0.3,1-0.5,1.4L2.8,40.1z"/>
		<path class="st0" d="M11.7,36.3v5.5c0,0.9,0.2,1.5,0.5,1.9c0.4,0.4,0.9,0.6,1.7,0.6c1,0,1.8-0.3,2.2-0.8c0.5-0.5,0.7-1.3,0.7-2.5
			v-4.7h0.8v8.5H17l-0.1-1.2h0c-0.6,0.9-1.5,1.3-3,1.3c-1.9,0-2.9-1-2.9-3.1v-5.6H11.7z"/>
		<path class="st0" d="M22.8,44.3c0.5,0,0.9,0,1.3-0.1v0.6c-0.4,0.1-0.8,0.2-1.3,0.2c-0.8,0-1.3-0.2-1.7-0.6c-0.4-0.4-0.5-1-0.5-1.9
			V37h-1.3v-0.5l1.3-0.4l0.4-1.9h0.4v2.1h2.5V37h-2.5v5.4c0,0.7,0.1,1.1,0.3,1.4S22.3,44.3,22.8,44.3z"/>
		<path class="st0" d="M31.8,44.8v-5.5c0-0.9-0.2-1.5-0.5-1.9c-0.4-0.4-0.9-0.6-1.7-0.6c-1,0-1.8,0.3-2.2,0.8s-0.7,1.3-0.7,2.5v4.7
			h-0.8V32.6h0.8v3.9l0,1.1h0.1c0.3-0.5,0.7-0.9,1.2-1.1s1.1-0.3,1.8-0.3c1.9,0,2.9,1,2.9,3.1v5.6H31.8z"/>
		<path class="st0" d="M42.4,40.6c0,1.4-0.3,2.5-1,3.3c-0.7,0.8-1.6,1.2-2.8,1.2c-0.7,0-1.4-0.2-2-0.5c-0.6-0.4-1-0.9-1.3-1.6
			c-0.3-0.7-0.5-1.5-0.5-2.3c0-1.4,0.3-2.5,1-3.2c0.7-0.8,1.6-1.2,2.8-1.2c1.2,0,2.1,0.4,2.8,1.2C42.1,38.1,42.4,39.2,42.4,40.6z
			 M35.7,40.6c0,1.2,0.3,2.1,0.8,2.7c0.5,0.7,1.2,1,2.2,1c0.9,0,1.7-0.3,2.2-1c0.5-0.7,0.8-1.6,0.8-2.7c0-1.2-0.3-2.1-0.8-2.7
			c-0.5-0.6-1.2-1-2.2-1c-0.9,0-1.7,0.3-2.2,1C35.9,38.5,35.7,39.4,35.7,40.6z"/>
		<path class="st0" d="M48.1,36.2c0.4,0,0.7,0,1.2,0.1L49.1,37c-0.4-0.1-0.7-0.1-1.1-0.1c-0.7,0-1.3,0.3-1.8,0.9
			c-0.5,0.6-0.7,1.4-0.7,2.3v4.7h-0.8v-8.5h0.7l0.1,1.5h0.1c0.4-0.6,0.7-1.1,1.1-1.3C47.1,36.3,47.6,36.2,48.1,36.2z"/>
		<path class="st0" d="M50.9,34c0-0.5,0.2-0.8,0.5-0.8c0.2,0,0.3,0.1,0.4,0.2c0.1,0.1,0.1,0.3,0.1,0.6c0,0.2,0,0.4-0.1,0.6
			c-0.1,0.1-0.2,0.2-0.4,0.2C51.1,34.7,50.9,34.5,50.9,34z M51.8,44.8H51v-8.5h0.8V44.8z"/>
		<path class="st0" d="M59.9,44.8h-6.1v-0.5l5.1-7.3h-4.7v-0.7h5.7v0.5l-5.1,7.3h5.1V44.8z"/>
		<path class="st0" d="M65.5,45c-1.2,0-2.2-0.4-2.9-1.1c-0.7-0.8-1-1.8-1-3.2c0-1.4,0.3-2.4,1-3.3c0.7-0.8,1.6-1.2,2.7-1.2
			c1,0,1.8,0.4,2.4,1.1c0.6,0.7,0.9,1.7,0.9,2.9v0.6h-6.1c0,1.2,0.3,2.1,0.8,2.7c0.5,0.6,1.3,0.9,2.3,0.9c0.5,0,0.9,0,1.3-0.1
			c0.4-0.1,0.8-0.2,1.4-0.4v0.7c-0.5,0.2-0.9,0.4-1.3,0.4C66.4,45,66,45,65.5,45z M65.3,36.8c-0.8,0-1.5,0.3-2,0.8
			c-0.5,0.5-0.8,1.3-0.9,2.3h5.3c0-1-0.2-1.8-0.6-2.3C66.6,37.1,66,36.8,65.3,36.8z"/>
		<path class="st0" d="M74,36.2c0.6,0,1.1,0.1,1.6,0.3c0.4,0.2,0.9,0.6,1.2,1.2h0c0-0.7,0-1.3,0-1.9v-3.1h0.8v12.2H77l-0.2-1.3h-0.1
			c-0.6,1-1.6,1.5-2.8,1.5c-1.2,0-2.1-0.4-2.7-1.1c-0.6-0.7-0.9-1.8-0.9-3.2c0-1.5,0.3-2.6,0.9-3.4C71.9,36.5,72.8,36.2,74,36.2z
			 M74,36.9c-0.9,0-1.6,0.3-2.1,1c-0.5,0.7-0.7,1.6-0.7,2.8c0,2.4,0.9,3.6,2.8,3.6c1,0,1.7-0.3,2.1-0.8c0.4-0.6,0.7-1.5,0.7-2.8
			v-0.1c0-1.3-0.2-2.3-0.7-2.8C75.7,37.2,75,36.9,74,36.9z"/>
		<path class="st0" d="M89.7,33.9c-1.4,0-2.6,0.5-3.4,1.4c-0.8,0.9-1.2,2.2-1.2,3.8c0,1.6,0.4,2.9,1.2,3.8c0.8,0.9,1.9,1.4,3.3,1.4
			c1,0,1.8-0.1,2.6-0.4v0.7c-0.8,0.3-1.7,0.4-2.8,0.4c-1.6,0-2.9-0.5-3.8-1.6c-0.9-1-1.4-2.5-1.4-4.4c0-1.2,0.2-2.2,0.7-3.1
			c0.4-0.9,1.1-1.6,1.9-2.1c0.8-0.5,1.8-0.7,2.9-0.7c1.1,0,2.1,0.2,3,0.6l-0.3,0.7C91.5,34.2,90.6,33.9,89.7,33.9z"/>
		<path class="st0" d="M101.6,40.6c0,1.4-0.3,2.5-1,3.3C99.9,44.6,99,45,97.8,45c-0.7,0-1.4-0.2-2-0.5c-0.6-0.4-1-0.9-1.3-1.6
			c-0.3-0.7-0.5-1.5-0.5-2.3c0-1.4,0.3-2.5,1-3.2c0.7-0.8,1.6-1.2,2.8-1.2c1.2,0,2.1,0.4,2.8,1.2C101.2,38.1,101.6,39.2,101.6,40.6z
			 M94.9,40.6c0,1.2,0.3,2.1,0.8,2.7c0.5,0.7,1.2,1,2.2,1c0.9,0,1.7-0.3,2.2-1c0.5-0.7,0.8-1.6,0.8-2.7c0-1.2-0.3-2.1-0.8-2.7
			c-0.5-0.6-1.2-1-2.2-1c-0.9,0-1.7,0.3-2.2,1C95.1,38.5,94.9,39.4,94.9,40.6z"/>
		<path class="st0" d="M114.6,44.8v-5.6c0-0.8-0.2-1.4-0.5-1.8s-0.8-0.6-1.5-0.6c-0.9,0-1.5,0.2-1.9,0.7c-0.4,0.5-0.6,1.2-0.6,2.3v5
			h-0.8V39c0-1.4-0.7-2.2-2-2.2c-0.9,0-1.5,0.3-2,0.8c-0.4,0.5-0.6,1.4-0.6,2.5v4.7h-0.8v-8.5h0.6l0.2,1.2h0c0.2-0.4,0.6-0.8,1-1
			c0.4-0.2,0.9-0.3,1.4-0.3c1.3,0,2.2,0.5,2.6,1.5h0c0.3-0.5,0.6-0.9,1.1-1.1c0.5-0.3,1-0.4,1.6-0.4c0.9,0,1.6,0.2,2.1,0.7
			s0.7,1.3,0.7,2.4v5.6H114.6z"/>
		<path class="st0" d="M125.2,40.6c0,1.4-0.3,2.5-1,3.3c-0.7,0.8-1.6,1.2-2.8,1.2c-0.7,0-1.4-0.2-2-0.5c-0.6-0.4-1-0.9-1.3-1.6
			c-0.3-0.7-0.5-1.5-0.5-2.3c0-1.4,0.3-2.5,1-3.2c0.7-0.8,1.6-1.2,2.8-1.2c1.2,0,2.1,0.4,2.8,1.2C124.8,38.1,125.2,39.2,125.2,40.6z
			 M118.4,40.6c0,1.2,0.3,2.1,0.8,2.7c0.5,0.7,1.2,1,2.2,1s1.7-0.3,2.2-1c0.5-0.7,0.8-1.6,0.8-2.7c0-1.2-0.3-2.1-0.8-2.7
			c-0.5-0.6-1.2-1-2.2-1s-1.7,0.3-2.2,1C118.7,38.5,118.4,39.4,118.4,40.6z"/>
		<path class="st0" d="M130.6,36.2c0.6,0,1.1,0.1,1.6,0.3c0.4,0.2,0.9,0.6,1.2,1.2h0c0-0.7,0-1.3,0-1.9v-3.1h0.8v12.2h-0.5l-0.2-1.3
			h-0.1c-0.6,1-1.6,1.5-2.8,1.5c-1.2,0-2.1-0.4-2.7-1.1c-0.6-0.7-0.9-1.8-0.9-3.2c0-1.5,0.3-2.6,0.9-3.4
			C128.6,36.5,129.5,36.2,130.6,36.2z M130.6,36.9c-0.9,0-1.6,0.3-2.1,1c-0.5,0.7-0.7,1.6-0.7,2.8c0,2.4,0.9,3.6,2.8,3.6
			c1,0,1.7-0.3,2.1-0.8c0.4-0.6,0.7-1.5,0.7-2.8v-0.1c0-1.3-0.2-2.3-0.7-2.8C132.3,37.2,131.6,36.9,130.6,36.9z"/>
		<path class="st0" d="M144.1,40.6c0,1.4-0.3,2.5-1,3.3c-0.7,0.8-1.6,1.2-2.8,1.2c-0.7,0-1.4-0.2-2-0.5c-0.6-0.4-1-0.9-1.3-1.6
			c-0.3-0.7-0.5-1.5-0.5-2.3c0-1.4,0.3-2.5,1-3.2c0.7-0.8,1.6-1.2,2.8-1.2c1.2,0,2.1,0.4,2.8,1.2C143.8,38.1,144.1,39.2,144.1,40.6z
			 M137.4,40.6c0,1.2,0.3,2.1,0.8,2.7c0.5,0.7,1.2,1,2.2,1s1.7-0.3,2.2-1c0.5-0.7,0.8-1.6,0.8-2.7c0-1.2-0.3-2.1-0.8-2.7
			c-0.5-0.6-1.2-1-2.2-1c-0.9,0-1.7,0.3-2.2,1C137.6,38.5,137.4,39.4,137.4,40.6z"/>
		<path class="st0" d="M157.2,41.9c0,1-0.4,1.7-1.1,2.3c-0.7,0.6-1.6,0.8-2.8,0.8c-1.4,0-2.5-0.2-3.2-0.5v-0.8
			c0.8,0.4,1.9,0.5,3.2,0.5c0.9,0,1.7-0.2,2.2-0.6c0.6-0.4,0.8-1,0.8-1.7c0-0.4-0.1-0.8-0.3-1.1c-0.2-0.3-0.5-0.5-0.9-0.8
			c-0.4-0.2-1-0.5-1.8-0.8c-1.2-0.4-2-0.8-2.4-1.3c-0.4-0.5-0.7-1.1-0.7-1.9c0-0.9,0.3-1.6,1-2.1c0.7-0.5,1.5-0.8,2.6-0.8
			c1.1,0,2.1,0.2,3,0.6l-0.3,0.7c-1-0.4-1.9-0.6-2.7-0.6c-0.8,0-1.5,0.2-2,0.6s-0.8,0.9-0.8,1.6c0,0.4,0.1,0.8,0.2,1
			c0.2,0.3,0.4,0.5,0.8,0.7s1,0.5,1.8,0.8c0.9,0.3,1.6,0.6,2,0.9c0.4,0.3,0.8,0.6,1,1C157.1,40.9,157.2,41.4,157.2,41.9z"/>
		<path class="st0" d="M159.3,34c0-0.5,0.2-0.8,0.5-0.8c0.2,0,0.3,0.1,0.4,0.2c0.1,0.1,0.1,0.3,0.1,0.6c0,0.2,0,0.4-0.1,0.6
			c-0.1,0.1-0.2,0.2-0.4,0.2C159.4,34.7,159.3,34.5,159.3,34z M160.2,44.8h-0.8v-8.5h0.8V44.8z"/>
		<path class="st0" d="M165.3,44.3c0.5,0,0.9,0,1.3-0.1v0.6c-0.4,0.1-0.8,0.2-1.3,0.2c-0.8,0-1.3-0.2-1.7-0.6
			c-0.4-0.4-0.5-1-0.5-1.9V37h-1.3v-0.5l1.3-0.4l0.4-1.9h0.4v2.1h2.5V37h-2.5v5.4c0,0.7,0.1,1.1,0.3,1.4S164.8,44.3,165.3,44.3z"/>
		<path class="st0" d="M171.8,45c-1.2,0-2.2-0.4-2.9-1.1c-0.7-0.8-1-1.8-1-3.2c0-1.4,0.3-2.4,1-3.3c0.7-0.8,1.6-1.2,2.7-1.2
			c1,0,1.8,0.4,2.4,1.1c0.6,0.7,0.9,1.7,0.9,2.9v0.6h-6.1c0,1.2,0.3,2.1,0.8,2.7c0.5,0.6,1.3,0.9,2.3,0.9c0.5,0,0.9,0,1.3-0.1
			c0.4-0.1,0.8-0.2,1.4-0.4v0.7c-0.5,0.2-0.9,0.4-1.3,0.4C172.8,45,172.3,45,171.8,45z M171.6,36.8c-0.8,0-1.5,0.3-2,0.8
			c-0.5,0.5-0.8,1.3-0.9,2.3h5.3c0-1-0.2-1.8-0.6-2.3C172.9,37.1,172.4,36.8,171.6,36.8z"/>
	</g>
	<g id="Comodo_3_">
		<path class="st1" d="M135.1,0.5l-10.4,0l0,0.7c0,1.6,0.6,3.5,3.2,3.5c0.2,0,3.1,0,3.1,0h3.9c4.1,0,6.2,1.3,5.6,5.9l-0.5,3.6
			c-0.6,4.7-4,5.4-6.9,5.4h-3.9l1.1-9c0.2-1.3-0.5-3.4-3-3.4l0,0h-3.4l-0.9,7.4l-0.9,6.5c-0.2,1.7,1,2.7,3.8,2.7l8,0
			c8.1,0,10.3-2.9,11.5-4.8c0.6-1.1,1-2.3,1.3-3.8c0.1-0.3,0.6-4.9,0.6-4.9c0.3-2.8-0.2-5-1.6-6.5C143.7,1.6,140.3,0.5,135.1,0.5z"
			/>
		<path class="st1" d="M40.7,0L40.7,0L40.7,0l-1.2,0c-8.2,0.1-12.5,3.5-13.4,10l-0.5,4.2c-0.3,2.9,0.2,5.1,1.6,6.7
			c1.7,2,4.8,3.4,9.4,3.4h1.2c8-0.1,12.3-3.4,13.3-9.4l0.1-0.4l0.5-4.2c0.4-3-0.2-5.3-1.6-6.9C48.3,1.4,45.3,0,40.7,0z M45,10.2
			L44.5,14c-0.2,1.7-0.7,3-1.4,4c-1,1.3-2.6,2.1-4.7,2.1h-1.2h-0.1c-2.1,0-3.7-0.7-4.3-2c-0.4-0.9-0.6-2.2-0.3-3.9l0.5-3.9
			c0.3-2.1,0.9-3.6,2-4.6c1.1-1,2.6-1.5,4.4-1.5h0h1.1h0c1.2,0,2.9,0.2,3.8,1.4C45,6.7,45.3,8.1,45,10.2z"/>
		<path class="st1" d="M177.1,3.3c-1.7-2-4.8-3.3-9.4-3.3h0h0l-1.1,0c-8.2,0.1-12.5,3.5-13.3,10l-0.5,4.2c-0.3,2.9,0.2,5.1,1.6,6.7
			c1.7,2,4.8,3.4,9.4,3.4h1.1c8-0.1,12.3-3.4,13.3-9.4l0.1-0.4l0.5-4.2C179.1,7.2,178.6,4.9,177.1,3.3z M172,10.2l-0.5,3.8
			c-0.2,1.7-0.7,3-1.4,4c-1,1.3-2.6,2.1-4.7,2.1h-1.2h-0.1c-2.1,0-3.7-0.7-4.3-2c-0.4-0.9-0.6-2.2-0.3-3.9l0.5-3.9
			c0.3-2.1,0.9-3.6,2-4.6c1-1,2.6-1.5,4.4-1.5h0h1.1l0,0c1.2,0,2.9,0.2,3.8,1.4C172,6.7,172.3,8.1,172,10.2z"/>
		<path class="st1" d="M106.6,0L106.6,0L106.6,0l-1.2,0C97.3,0.1,93,3.5,92.1,10l-0.5,4.2c-0.3,2.9,0.2,5.1,1.6,6.7
			c1.7,2,4.8,3.4,9.4,3.4h1.2c8-0.1,12.3-3.4,13.3-9.4l0.1-0.4l0.5-4.2c0.4-3-0.2-5.3-1.6-6.9C114.2,1.4,111.2,0,106.6,0z
			 M110.9,10.2l-0.5,3.8c-0.2,1.7-0.7,3-1.4,4c-1,1.3-2.6,2.1-4.7,2.1H103H103c-2.1,0-3.7-0.7-4.3-2c-0.4-0.9-0.6-2.2-0.3-3.9
			l0.5-3.9c0.3-2.1,0.9-3.6,2-4.6c1.1-1,2.6-1.5,4.4-1.5h0h1.1l0,0c1.2,0,2.9,0.2,3.8,1.4C110.9,6.7,111.1,8.1,110.9,10.2z"/>
		<path class="st1" d="M80.7,1.8l-9,10.2L65.4,1.9c-0.6-0.9-1.8-1.4-3.6-1.4H59l-2.8,23.3h3.5c1.2,0,2-0.5,2.4-0.9
			c0.7-0.6,1.2-1.5,1.4-2.5l1.3-10.2l4.7,8.8c0.2,0.3,0.8,1.1,1.5,1.1h0.1c0.8,0,1.4-0.7,1.7-1l7.1-8.9l-1.7,13.6l3.4,0
			c1.2,0,2-0.5,2.5-0.9c0.7-0.6,1.2-1.5,1.3-2.5l2.5-19.9h-3C82.8,0.5,81.5,1,80.7,1.8z"/>
		<path class="st1" d="M13.5,0.5c-1.2,0-2.2,0.1-3.2,0.2c-5.8,0.9-8.9,4-9.7,9.4l-0.5,4.1c-0.3,2.8,0.2,4.9,1.5,6.4
			c1.6,1.8,4.3,3.2,8.3,3.2h7c4.1,0,4.6-4.3,4.6-4.3l-9.3,0c-1.3,0-2.5-0.1-3.4-0.4c-1.2-0.4-1.9-1.2-2.1-2.6
			c-0.1-0.5-0.1-1.7,0-2.5l0.5-3.6c0.1-0.9,0.4-1.9,0.6-2.3c0.3-0.8,0.9-1.7,1.8-2.4c0.5-0.4,1.8-1.1,4.9-1.1h5.2
			c3.6,0,4.3-4.3,4.3-4.3H13.5z"/>
	</g>
</g>
</svg>
