<?xml version="1.0" encoding="utf-8"?>
<!-- Generator: Adobe Illustrator 24.0.1, SVG Export Plug-In . SVG Version: 6.00 Build 0)  -->
<svg version="1.1" id="Layer_1" xmlns="http://www.w3.org/2000/svg" xmlns:xlink="http://www.w3.org/1999/xlink" x="0px" y="0px"
	 width="153.172px" height="45.398px" viewBox="0 0 153.172 45.398" style="enable-background:new 0 0 153.172 45.398;"
	 xml:space="preserve">
<style type="text/css">
	.st0{fill:#1A74BB;}
	.st1{fill:#69696A;}
</style>
<g>
	<g>
		<path class="st0" d="M0.109,12.581c0-2.216,0.59-3.992,1.772-5.331c1.182-1.338,2.705-2.008,4.57-2.008
			c0.609,0,1.172,0.074,1.689,0.222c0.517,0.148,0.928,0.332,1.232,0.554c0.305,0.222,0.572,0.443,0.803,0.665
			c0.231,0.222,0.392,0.406,0.485,0.554l0.111,0.222h0.055c-0.037-0.277-0.055-0.591-0.055-0.942V0.036h2.686v19.553H10.91v-1.329
			l0.028-0.942h-0.055c-0.037,0.074-0.088,0.166-0.152,0.277c-0.065,0.111-0.222,0.319-0.471,0.623
			C10.01,18.522,9.723,18.79,9.4,19.02c-0.323,0.231-0.762,0.439-1.315,0.623c-0.554,0.184-1.154,0.277-1.8,0.277
			c-1.883,0-3.384-0.674-4.5-2.022C0.667,16.551,0.109,14.779,0.109,12.581z M2.851,12.581c0,1.514,0.364,2.728,1.094,3.642
			c0.729,0.914,1.685,1.371,2.867,1.371c1.144,0,2.105-0.42,2.88-1.26c0.776-0.84,1.163-2.1,1.163-3.78
			c0-1.348-0.346-2.515-1.039-3.503C9.124,8.063,8.149,7.569,6.894,7.569c-1.145,0-2.105,0.448-2.88,1.343
			C3.239,9.808,2.851,11.03,2.851,12.581z"/>
		<path class="st0" d="M15.724,2.777V0.036h2.714v2.742H15.724z M15.752,19.588V5.575h2.687v14.014H15.752z"/>
		<path class="st0" d="M22.536,22.136c1.163,0.627,2.446,0.942,3.85,0.942c1.329,0,2.4-0.319,3.213-0.955
			c0.812-0.637,1.219-1.63,1.219-2.977V18.12l0.028-0.886h-0.055c-0.868,1.459-2.253,2.188-4.154,2.188
			c-1.902,0-3.42-0.679-4.556-2.036c-1.136-1.357-1.703-3.069-1.703-5.137c0-2.068,0.544-3.753,1.634-5.054
			c1.089-1.302,2.585-1.953,4.487-1.953c0.627,0,1.209,0.069,1.745,0.208c0.535,0.138,0.96,0.314,1.274,0.526
			c0.314,0.212,0.582,0.42,0.803,0.623c0.222,0.203,0.369,0.379,0.443,0.526L30.9,7.319h0.055c-0.019-0.129-0.028-0.277-0.028-0.443
			V5.575h2.576v13.432c0,1.108-0.199,2.086-0.595,2.936c-0.398,0.849-0.937,1.518-1.62,2.008c-0.683,0.489-1.431,0.854-2.244,1.094
			c-0.813,0.24-1.68,0.36-2.603,0.36c-1.68,0-3.277-0.388-4.791-1.163L22.536,22.136z M27.161,17.096
			c1.089,0,1.98-0.378,2.672-1.135c0.692-0.757,1.039-1.984,1.039-3.683c0-3.139-1.32-4.708-3.96-4.708
			c-1.2,0-2.137,0.411-2.811,1.232c-0.674,0.822-1.011,1.953-1.011,3.393c0,1.477,0.364,2.664,1.094,3.559
			C24.913,16.648,25.905,17.096,27.161,17.096z"/>
		<path class="st0" d="M35.714,2.777V0.036h2.714v2.742H35.714z M35.742,19.588V5.575h2.687v14.014H35.742z"/>
		<path class="st0" d="M40.393,12.581c0-2.086,0.706-3.831,2.119-5.234c1.412-1.403,3.208-2.105,5.387-2.105
			c1.034,0,1.989,0.171,2.866,0.512c0.877,0.342,1.5,0.688,1.869,1.038l0.526,0.499l-1.274,1.883
			c-0.111-0.111-0.272-0.258-0.485-0.443c-0.212-0.184-0.656-0.424-1.329-0.72c-0.674-0.295-1.362-0.443-2.063-0.443
			c-1.403,0-2.566,0.471-3.49,1.412c-0.923,0.942-1.385,2.133-1.385,3.573s0.466,2.641,1.399,3.6c0.932,0.96,2.119,1.44,3.559,1.44
			c0.776,0,1.523-0.157,2.244-0.471c0.72-0.314,1.246-0.627,1.578-0.942l0.499-0.471l1.08,1.966
			c-0.055,0.055-0.134,0.134-0.236,0.235c-0.102,0.102-0.328,0.282-0.678,0.54c-0.351,0.259-0.73,0.485-1.136,0.678
			c-0.406,0.194-0.928,0.374-1.565,0.54c-0.637,0.166-1.297,0.249-1.98,0.249c-2.198,0-3.998-0.692-5.401-2.077
			C41.094,16.459,40.393,14.705,40.393,12.581z"/>
		<path class="st0" d="M53.827,12.581c0-2.197,0.66-3.969,1.98-5.317c1.32-1.348,2.995-2.022,5.027-2.022
			c1.901,0,3.388,0.619,4.459,1.856c1.071,1.237,1.606,2.807,1.606,4.708l-0.083,1.163H56.596c0.074,1.477,0.568,2.617,1.482,3.42
			c0.914,0.803,2.026,1.205,3.337,1.205c0.72,0,1.427-0.138,2.119-0.415c0.692-0.277,1.205-0.544,1.537-0.803l0.499-0.415
			l1.108,1.966c-0.148,0.148-0.37,0.332-0.665,0.554c-0.296,0.222-0.914,0.517-1.855,0.886c-0.942,0.369-1.911,0.554-2.908,0.554
			c-2.179,0-3.96-0.697-5.345-2.091C54.519,16.436,53.827,14.686,53.827,12.581z M56.679,10.947h7.478
			c-0.037-1.163-0.374-2.049-1.011-2.659c-0.637-0.609-1.426-0.914-2.368-0.914c-1.053,0-1.953,0.314-2.7,0.942
			C57.33,8.944,56.864,9.821,56.679,10.947z"/>
		<path class="st0" d="M68.835,19.588V5.575h2.604v2.437l-0.055,1.052h0.055c0.332-1.071,0.891-1.948,1.676-2.631
			c0.784-0.683,1.703-1.025,2.755-1.025l0.692,0.055v2.659c-0.24-0.055-0.499-0.083-0.776-0.083c-0.868,0-1.662,0.296-2.382,0.886
			c-0.72,0.591-1.237,1.394-1.551,2.41c-0.222,0.72-0.332,1.56-0.332,2.52v5.733H68.835z"/>
		<path class="st0" d="M80.001,14.465V7.929h-1.828v-2.16h1.911V1.725h2.603v4.044h3.379v2.16h-3.379v6.231
			c0,0.536,0.074,1.002,0.222,1.399c0.148,0.397,0.328,0.706,0.54,0.928c0.212,0.222,0.461,0.397,0.748,0.526
			c0.286,0.13,0.544,0.213,0.775,0.249c0.231,0.037,0.466,0.055,0.706,0.055l0.637-0.055v2.382
			c-0.259,0.037-0.573,0.055-0.941,0.055c-0.443,0-0.868-0.028-1.274-0.083c-0.406-0.055-0.868-0.194-1.385-0.415
			c-0.517-0.222-0.965-0.512-1.343-0.872c-0.379-0.36-0.702-0.872-0.969-1.537C80.135,16.126,80.001,15.351,80.001,14.465z"/>
		<path class="st0" d="M87.8,0c-1.126,0-2.029,0.907-2.029,2.031c0,1.117,0.904,2.027,2.029,2.027c1.122,0,2.03-0.91,2.03-2.027
			C89.83,0.907,88.922,0,87.8,0 M87.8,3.661c-0.904,0-1.632-0.731-1.632-1.631c0-0.902,0.728-1.634,1.632-1.634
			c0.901,0,1.63,0.732,1.63,1.634C89.43,2.93,88.702,3.661,87.8,3.661"/>
		<g>
			<path class="st0" d="M87.099,3.15V0.907h0.686c0.188,0,0.328,0.017,0.419,0.051c0.116,0.042,0.209,0.117,0.276,0.225
				c0.068,0.108,0.102,0.235,0.102,0.381c0,0.144-0.036,0.271-0.11,0.381c-0.073,0.11-0.171,0.185-0.294,0.226v0.006
				c0.017,0.019,0.039,0.053,0.067,0.102l0.476,0.87h-0.356l-0.473-0.892h-0.48V3.15H87.099z M87.413,1.984h0.451
				c0.123,0,0.22-0.037,0.291-0.11c0.071-0.073,0.106-0.172,0.106-0.297c0-0.165-0.059-0.281-0.178-0.346
				c-0.064-0.034-0.166-0.051-0.308-0.051h-0.362V1.984z"/>
		</g>
	</g>
	<g>
		<g>
			<path class="st1" d="M44.267,33.499c-0.513,0-0.998-0.086-1.455-0.258c-0.457-0.172-0.86-0.418-1.211-0.738
				c-0.35-0.32-0.629-0.732-0.834-1.235c-0.205-0.503-0.308-1.065-0.308-1.689c0-0.602,0.096-1.158,0.289-1.67
				c0.193-0.511,0.457-0.942,0.794-1.29c0.337-0.348,0.735-0.62,1.198-0.815c0.462-0.194,0.959-0.292,1.49-0.292
				c0.974,0,1.784,0.266,2.432,0.797l-0.404,0.69c-0.57-0.421-1.221-0.632-1.954-0.632c-0.552,0-1.041,0.141-1.466,0.422
				c-0.425,0.281-0.749,0.665-0.974,1.15c-0.225,0.485-0.337,1.029-0.337,1.63c0,0.938,0.26,1.685,0.778,2.241
				c0.518,0.556,1.189,0.834,2.01,0.834c0.779,0,1.508-0.255,2.188-0.765l0.34,0.807C46.102,33.228,45.244,33.499,44.267,33.499z"/>
			<path class="st1" d="M50.415,33.499c-0.868,0-1.556-0.258-2.066-0.773c-0.51-0.515-0.765-1.199-0.765-2.052
				c0-0.839,0.245-1.528,0.735-2.068c0.491-0.54,1.139-0.81,1.946-0.81c0.51,0,0.946,0.119,1.309,0.356
				c0.363,0.237,0.632,0.56,0.807,0.966c0.175,0.407,0.263,0.88,0.263,1.418c0,0.067-0.005,0.154-0.016,0.26h-4.036
				c0.011,0.609,0.186,1.079,0.526,1.41c0.34,0.331,0.789,0.497,1.349,0.497c0.651,0,1.229-0.202,1.731-0.605l0.292,0.722
				C51.907,33.272,51.215,33.499,50.415,33.499z M48.62,30.127h3.128c-0.035-0.499-0.181-0.883-0.435-1.152
				c-0.255-0.269-0.595-0.404-1.02-0.404c-0.446,0-0.818,0.138-1.118,0.414C48.875,29.261,48.691,29.642,48.62,30.127z"/>
			<path class="st1" d="M53.919,33.382v-4.11c0-0.12-0.006-0.292-0.019-0.515c-0.013-0.223-0.024-0.416-0.035-0.579l-0.016-0.244
				h1.036l0.011,0.85c0.329-0.651,0.814-0.977,1.455-0.977c0.202,0,0.386,0.021,0.552,0.064l-0.005,0.866
				c-0.209-0.056-0.409-0.085-0.6-0.085c-0.418,0-0.754,0.146-1.009,0.438s-0.382,0.713-0.382,1.261v3.032H53.919z"/>
			<path class="st1" d="M60.699,33.382h-0.451c-0.772-0.007-1.3-0.145-1.585-0.414c-0.285-0.269-0.427-0.759-0.427-1.471v-2.91
				h-1.046v-0.653h1.067v-1.402l0.956-0.281v1.683h1.476v0.653h-1.476v2.963c0,0.195,0.013,0.352,0.04,0.473
				c0.027,0.12,0.068,0.222,0.125,0.305c0.056,0.083,0.147,0.144,0.271,0.183c0.124,0.039,0.264,0.066,0.42,0.082
				s0.366,0.024,0.632,0.024V33.382z"/>
			<path class="st1" d="M61.867,33.382v-5.449h0.972v5.449H61.867z M61.872,26.558V25.65h0.966v0.908H61.872z"/>
			<path class="st1" d="M64.781,33.382v-4.795h-0.972v-0.653h0.972v-0.446c0-0.188,0.005-0.349,0.013-0.486
				c0.009-0.136,0.026-0.272,0.05-0.409c0.025-0.136,0.06-0.251,0.106-0.345c0.046-0.094,0.106-0.185,0.178-0.273
				c0.072-0.088,0.16-0.16,0.263-0.215c0.103-0.055,0.225-0.104,0.366-0.146c0.141-0.042,0.303-0.072,0.486-0.09
				c0.183-0.018,0.39-0.027,0.624-0.027h0.25l-0.021,0.759c-0.216,0-0.395,0.006-0.536,0.019c-0.141,0.013-0.264,0.038-0.366,0.077
				c-0.103,0.039-0.181,0.082-0.236,0.13c-0.055,0.048-0.098,0.12-0.13,0.218c-0.032,0.098-0.051,0.196-0.058,0.297
				c-0.007,0.101-0.011,0.238-0.011,0.412v0.526h1.301v0.653h-1.301v4.795H64.781z"/>
			<path class="st1" d="M67.945,33.382v-5.449h0.972v5.449H67.945z M67.95,26.558V25.65h0.966v0.908H67.95z"/>
			<path class="st1" d="M72.888,33.499c-0.868,0-1.556-0.258-2.066-0.773c-0.51-0.515-0.765-1.199-0.765-2.052
				c0-0.839,0.245-1.528,0.735-2.068c0.491-0.54,1.139-0.81,1.946-0.81c0.51,0,0.946,0.119,1.309,0.356
				c0.363,0.237,0.632,0.56,0.807,0.966c0.175,0.407,0.263,0.88,0.263,1.418c0,0.067-0.005,0.154-0.016,0.26h-4.036
				c0.011,0.609,0.186,1.079,0.526,1.41c0.34,0.331,0.789,0.497,1.349,0.497c0.651,0,1.229-0.202,1.731-0.605l0.292,0.722
				C74.38,33.272,73.688,33.499,72.888,33.499z M71.093,30.127h3.128c-0.035-0.499-0.181-0.883-0.435-1.152
				c-0.255-0.269-0.595-0.404-1.02-0.404c-0.446,0-0.818,0.138-1.118,0.414C71.349,29.261,71.164,29.642,71.093,30.127z"/>
			<path class="st1" d="M78.468,33.499c-0.73,0-1.327-0.258-1.792-0.773c-0.465-0.515-0.698-1.199-0.698-2.052
				c0-0.559,0.099-1.054,0.297-1.484s0.491-0.77,0.879-1.02c0.388-0.25,0.844-0.374,1.367-0.374c0.418,0,0.783,0.094,1.094,0.281
				c0.311,0.188,0.528,0.413,0.648,0.674V25.49h0.982v6.479c0.003,0.326,0.016,0.797,0.037,1.413h-0.993l-0.021-0.924
				c-0.11,0.283-0.321,0.528-0.635,0.733S78.932,33.499,78.468,33.499z M78.611,32.702c0.534,0,0.947-0.189,1.237-0.568
				c0.29-0.379,0.435-0.887,0.435-1.524c0-0.598-0.147-1.084-0.441-1.458c-0.294-0.373-0.699-0.56-1.216-0.56
				s-0.919,0.189-1.205,0.566c-0.287,0.377-0.43,0.876-0.43,1.495c0,0.616,0.14,1.112,0.42,1.487
				C77.69,32.515,78.091,32.702,78.611,32.702z"/>
			<path class="st1" d="M85.847,33.382V25.65h2.225c0.39,0,0.728,0.016,1.017,0.048c0.289,0.032,0.566,0.094,0.831,0.186
				c0.266,0.092,0.481,0.215,0.645,0.369c0.165,0.154,0.295,0.358,0.393,0.613c0.098,0.255,0.146,0.556,0.146,0.903
				c0,0.39-0.064,0.722-0.191,0.998c-0.127,0.276-0.316,0.494-0.566,0.653c-0.25,0.159-0.542,0.275-0.879,0.348
				c-0.337,0.073-0.731,0.109-1.184,0.109h-1.423v3.505H85.847z M86.862,29.022h1.407c0.613,0,1.065-0.092,1.359-0.276
				c0.294-0.184,0.441-0.508,0.441-0.972c0-0.173-0.018-0.327-0.053-0.459s-0.091-0.246-0.167-0.34
				c-0.076-0.094-0.165-0.172-0.266-0.234c-0.101-0.062-0.225-0.11-0.372-0.143c-0.147-0.034-0.301-0.057-0.462-0.072
				c-0.161-0.014-0.348-0.021-0.56-0.021c-0.007,0-0.014,0-0.021,0s-0.013,0-0.019,0s-0.011,0-0.019,0c-0.007,0-0.013,0-0.019,0
				s-0.011,0-0.019,0h-1.232V29.022z"/>
			<path class="st1" d="M94.321,33.499c-0.407,0-0.776-0.076-1.107-0.228c-0.331-0.152-0.603-0.358-0.818-0.619
				s-0.379-0.561-0.494-0.903c-0.115-0.342-0.173-0.705-0.173-1.091c0-0.531,0.104-1.012,0.311-1.442s0.509-0.774,0.905-1.033
				c0.396-0.258,0.855-0.388,1.375-0.388c0.386,0,0.737,0.094,1.054,0.281c0.317,0.188,0.557,0.428,0.72,0.722v-0.866h0.966v5.449
				h-0.977v-0.929c-0.156,0.326-0.388,0.581-0.696,0.767C95.081,33.406,94.725,33.499,94.321,33.499z M94.46,32.702
				c0.542,0,0.955-0.189,1.24-0.566c0.285-0.377,0.427-0.884,0.427-1.521c0-0.602-0.145-1.089-0.435-1.463
				c-0.29-0.373-0.704-0.56-1.243-0.56c-0.566,0-0.998,0.188-1.293,0.563c-0.295,0.375-0.443,0.868-0.443,1.476
				c0,0.613,0.149,1.111,0.446,1.495C93.456,32.51,93.889,32.702,94.46,32.702z"/>
			<path class="st1" d="M98.633,33.382v-4.11c0-0.12-0.006-0.292-0.019-0.515c-0.013-0.223-0.024-0.416-0.035-0.579l-0.016-0.244
				h1.036l0.011,0.85c0.329-0.651,0.814-0.977,1.455-0.977c0.202,0,0.386,0.021,0.552,0.064l-0.005,0.866
				c-0.209-0.056-0.409-0.085-0.6-0.085c-0.418,0-0.754,0.146-1.009,0.438s-0.382,0.713-0.382,1.261v3.032H98.633z"/>
			<path class="st1" d="M105.413,33.382h-0.451c-0.772-0.007-1.3-0.145-1.585-0.414c-0.285-0.269-0.427-0.759-0.427-1.471v-2.91
				h-1.046v-0.653h1.067v-1.402l0.956-0.281v1.683h1.476v0.653h-1.476v2.963c0,0.195,0.013,0.352,0.04,0.473
				c0.027,0.12,0.068,0.222,0.125,0.305c0.056,0.083,0.147,0.144,0.271,0.183c0.124,0.039,0.264,0.066,0.42,0.082
				c0.156,0.016,0.366,0.024,0.632,0.024V33.382z"/>
			<path class="st1" d="M106.607,33.382v-3.94c0-0.241-0.005-0.487-0.013-0.738c-0.009-0.251-0.019-0.442-0.029-0.574l-0.016-0.196
				h1.009l0.011,0.855c0.188-0.311,0.451-0.555,0.789-0.73c0.338-0.175,0.695-0.263,1.07-0.263c0.687,0,1.193,0.208,1.519,0.624
				c0.326,0.416,0.489,1.047,0.489,1.893v3.069h-0.977v-3.064c0-0.591-0.088-1.027-0.266-1.306c-0.177-0.279-0.489-0.42-0.935-0.42
				c-0.411,0-0.784,0.139-1.121,0.417c-0.337,0.278-0.518,0.597-0.547,0.959v3.415H106.607z"/>
			<path class="st1" d="M115.368,33.499c-0.868,0-1.556-0.258-2.066-0.773c-0.51-0.515-0.765-1.199-0.765-2.052
				c0-0.839,0.245-1.528,0.735-2.068c0.491-0.54,1.139-0.81,1.946-0.81c0.51,0,0.946,0.119,1.309,0.356
				c0.363,0.237,0.632,0.56,0.807,0.966c0.175,0.407,0.263,0.88,0.263,1.418c0,0.067-0.005,0.154-0.016,0.26h-4.036
				c0.011,0.609,0.186,1.079,0.526,1.41c0.34,0.331,0.789,0.497,1.349,0.497c0.651,0,1.229-0.202,1.731-0.605l0.292,0.722
				C116.86,33.272,116.168,33.499,115.368,33.499z M113.573,30.127h3.128c-0.035-0.499-0.181-0.883-0.435-1.152
				c-0.255-0.269-0.595-0.404-1.02-0.404c-0.446,0-0.818,0.138-1.118,0.414C113.829,29.261,113.644,29.642,113.573,30.127z"/>
			<path class="st1" d="M118.872,33.382v-4.11c0-0.12-0.006-0.292-0.019-0.515c-0.013-0.223-0.024-0.416-0.035-0.579l-0.016-0.244
				h1.036l0.011,0.85c0.329-0.651,0.814-0.977,1.455-0.977c0.202,0,0.386,0.021,0.552,0.064l-0.005,0.866
				c-0.209-0.056-0.409-0.085-0.6-0.085c-0.418,0-0.754,0.146-1.009,0.438s-0.382,0.713-0.382,1.261v3.032H118.872z"/>
		</g>
	</g>
	<g>
		<g>
			<path class="st1" d="M86.16,45.276v-7.732h2.204c0.287,0,0.538,0.006,0.754,0.019s0.441,0.037,0.677,0.074
				c0.236,0.037,0.437,0.088,0.605,0.151c0.168,0.064,0.33,0.149,0.486,0.258c0.156,0.108,0.282,0.237,0.38,0.388
				c0.098,0.151,0.175,0.334,0.231,0.55c0.056,0.216,0.085,0.46,0.085,0.733c0,0.326-0.044,0.611-0.133,0.858
				c-0.088,0.246-0.214,0.451-0.377,0.616c-0.163,0.165-0.367,0.298-0.613,0.401c-0.246,0.103-0.515,0.176-0.807,0.22
				c-0.292,0.044-0.624,0.066-0.996,0.066h-1.275v3.399H86.16z M87.381,40.831h1.253c0.216,0,0.406-0.009,0.568-0.027
				c0.163-0.018,0.317-0.051,0.462-0.101c0.145-0.05,0.263-0.115,0.353-0.196c0.09-0.082,0.162-0.188,0.215-0.319
				c0.053-0.131,0.08-0.285,0.08-0.462c0-0.173-0.019-0.324-0.056-0.451c-0.037-0.127-0.098-0.233-0.181-0.316
				c-0.083-0.083-0.173-0.149-0.268-0.199s-0.225-0.087-0.388-0.112c-0.163-0.025-0.316-0.04-0.459-0.048
				c-0.143-0.007-0.329-0.011-0.555-0.011h-1.025V40.831z"/>
			<path class="st1" d="M92.51,45.276v-7.801h1.184v7.801H92.51z"/>
			<path class="st1" d="M97.395,45.398c-0.425,0-0.809-0.079-1.152-0.236c-0.343-0.157-0.621-0.369-0.834-0.635
				s-0.374-0.564-0.486-0.895s-0.167-0.679-0.167-1.043c0-0.382,0.059-0.747,0.178-1.094s0.287-0.655,0.507-0.924
				s0.5-0.483,0.842-0.643s0.72-0.239,1.134-0.239c0.361,0,0.683,0.077,0.966,0.231c0.283,0.154,0.51,0.36,0.68,0.619v-0.712h1.163
				v5.449h-1.184v-0.818c-0.163,0.283-0.387,0.51-0.672,0.682C98.085,45.312,97.759,45.398,97.395,45.398z M97.56,44.431
				c0.52,0,0.908-0.173,1.163-0.518c0.255-0.345,0.382-0.807,0.382-1.383c0-0.566-0.132-1.022-0.396-1.365
				c-0.264-0.343-0.653-0.515-1.166-0.515c-0.528,0-0.926,0.173-1.195,0.518c-0.269,0.345-0.404,0.803-0.404,1.373
				c0,0.56,0.135,1.014,0.406,1.365C96.622,44.256,97.025,44.431,97.56,44.431z"/>
			<path class="st1" d="M104.648,45.271h-0.51c-0.39,0-0.71-0.025-0.961-0.074c-0.252-0.05-0.475-0.143-0.669-0.281
				c-0.194-0.138-0.335-0.337-0.422-0.595c-0.087-0.258-0.13-0.591-0.13-0.998v-2.698h-1.083v-0.797h1.115V38.5l1.152-0.345v1.673
				h1.487v0.797h-1.487v2.767c0,0.223,0.019,0.396,0.058,0.518c0.039,0.122,0.12,0.218,0.244,0.289
				c0.124,0.071,0.273,0.115,0.446,0.133c0.173,0.018,0.427,0.027,0.759,0.027V45.271z"/>
			<path class="st1" d="M105.667,45.276v-5.449h1.163v5.449H105.667z M105.672,38.606v-1.062h1.158v1.062H105.672z"/>
			<path class="st1" d="M108.235,45.276v-3.595c0-0.329-0.007-0.648-0.021-0.956c-0.014-0.308-0.029-0.534-0.042-0.68l-0.021-0.218
				h1.248v0.77c0.188-0.29,0.443-0.514,0.765-0.672c0.322-0.157,0.646-0.236,0.972-0.236c0.672,0,1.177,0.202,1.513,0.605
				c0.337,0.404,0.504,1.046,0.504,1.928v3.054h-1.19v-3.091c0-0.538-0.079-0.929-0.236-1.171c-0.157-0.242-0.435-0.364-0.831-0.364
				c-0.343,0-0.674,0.132-0.993,0.396s-0.478,0.566-0.478,0.905v3.324H108.235z"/>
			<path class="st1" d="M116.492,45.398c-0.683,0-1.205-0.196-1.564-0.587c-0.359-0.391-0.539-0.913-0.539-1.564v-3.42h1.179v3.409
				c0,0.4,0.1,0.699,0.3,0.897c0.2,0.198,0.484,0.297,0.852,0.297c0.425,0,0.747-0.114,0.966-0.34s0.329-0.563,0.329-1.009v-3.255
				h1.19v4.025c0,0.453,0.018,0.927,0.053,1.423h-1.221l-0.021-0.828c-0.042,0.099-0.101,0.198-0.175,0.297
				c-0.074,0.099-0.172,0.201-0.292,0.305s-0.273,0.189-0.457,0.252C116.908,45.366,116.708,45.398,116.492,45.398z"/>
			<path class="st1" d="M120.649,45.276v-3.792c0-0.234-0.005-0.457-0.016-0.669s-0.023-0.41-0.037-0.592
				c-0.014-0.183-0.023-0.314-0.027-0.396h1.248v0.775c0.135-0.273,0.351-0.493,0.651-0.661s0.619-0.252,0.959-0.252
				c0.358,0,0.682,0.092,0.972,0.276c0.29,0.184,0.51,0.449,0.658,0.797c0.212-0.333,0.475-0.595,0.786-0.786
				c0.311-0.191,0.667-0.287,1.067-0.287c0.637,0,1.12,0.198,1.447,0.595c0.327,0.396,0.491,0.947,0.491,1.652v3.34h-1.19v-3.25
				c0-0.255-0.025-0.481-0.074-0.677c-0.05-0.196-0.141-0.362-0.276-0.497c-0.135-0.135-0.305-0.202-0.51-0.202
				c-0.396,0-0.736,0.155-1.02,0.465s-0.425,0.664-0.425,1.065v3.096h-1.19v-3.34c0-0.167-0.014-0.319-0.042-0.459
				c-0.029-0.14-0.075-0.275-0.141-0.406c-0.066-0.131-0.162-0.234-0.289-0.308c-0.127-0.074-0.279-0.112-0.457-0.112
				c-0.39,0-0.72,0.136-0.99,0.409c-0.271,0.273-0.406,0.586-0.406,0.94v3.277H120.649z"/>
			<path class="st1" d="M133.265,45.276v-7.732h4.785v1.041h-3.563v2.183h3.362v1.046h-3.356v2.422h3.712v1.041H133.265z"/>
			<path class="st1" d="M139.286,45.276v-7.801h1.184v7.801H139.286z"/>
			<path class="st1" d="M141.812,45.276v-5.449h1.163v5.449H141.812z M141.817,38.606v-1.062h1.158v1.062H141.817z"/>
			<path class="st1" d="M147.398,45.271h-0.51c-0.39,0-0.71-0.025-0.961-0.074c-0.252-0.05-0.475-0.143-0.669-0.281
				c-0.194-0.138-0.335-0.337-0.422-0.595c-0.087-0.258-0.13-0.591-0.13-0.998v-2.698h-1.083v-0.797h1.115V38.5l1.152-0.345v1.673
				h1.487v0.797h-1.487v2.767c0,0.223,0.019,0.396,0.058,0.518c0.039,0.122,0.12,0.218,0.244,0.289
				c0.124,0.071,0.273,0.115,0.446,0.133c0.173,0.018,0.427,0.027,0.759,0.027V45.271z"/>
			<path class="st1" d="M151.034,45.398c-0.892,0-1.598-0.26-2.119-0.781c-0.52-0.52-0.781-1.207-0.781-2.06
				c0-0.528,0.108-1.007,0.324-1.439c0.216-0.432,0.534-0.778,0.956-1.038c0.422-0.26,0.908-0.39,1.46-0.39
				c0.407,0,0.767,0.072,1.081,0.215c0.313,0.143,0.565,0.343,0.754,0.6c0.189,0.257,0.332,0.552,0.427,0.887
				c0.096,0.335,0.143,0.704,0.143,1.107c0,0.074-0.009,0.156-0.027,0.244h-3.877c0.021,0.56,0.189,0.98,0.504,1.264
				c0.315,0.283,0.73,0.425,1.243,0.425c0.619,0,1.19-0.198,1.71-0.595l0.335,0.871C152.556,45.168,151.845,45.398,151.034,45.398z
				 M149.404,41.941h2.815c-0.046-0.428-0.183-0.756-0.412-0.982s-0.521-0.34-0.879-0.34c-0.4,0-0.734,0.117-1.001,0.35
				C149.66,41.203,149.486,41.527,149.404,41.941z"/>
		</g>
	</g>
</g>
</svg>
