<?xml version="1.0" encoding="utf-8"?>
<!-- Generator: Adobe Illustrator 25.0.0, SVG Export Plug-In . SVG Version: 6.00 Build 0)  -->
<svg version="1.1" id="Layer_1" xmlns="http://www.w3.org/2000/svg" xmlns:xlink="http://www.w3.org/1999/xlink" x="0px" y="0px"
	 width="183px" height="40.91px" viewBox="0 0 183 40.91" style="enable-background:new 0 0 183 40.91;" xml:space="preserve">
<style type="text/css">
	.st0{fill:none;}
	.st1{fill:#764D2A;}
	.st2{fill:#F05A2B;}
</style>
<g>
	<path class="st0" d="M14.333,7.318H6.212v7.986h8.121c2.881,0,4.437-1.331,4.437-4.038C18.77,8.475,17.079,7.318,14.333,7.318z"/>
	<path class="st0" d="M91.22,14.333c-2.353,0-3.64,2.038-3.64,5.948c0,4.791,1.595,6.79,3.993,6.79c1.91,0,2.887-0.797,3.775-1.955
		v-8.79C94.416,15.041,92.995,14.333,91.22,14.333z"/>
	<path class="st0" d="M32.126,24.532c0,1.64,0.932,3.106,3.549,3.106c1.993,0,3.595-1.016,4.257-2.129v-2.926
		c-1.061-0.669-2.083-0.977-4.257-0.977C33.367,21.606,32.126,22.667,32.126,24.532z"/>
	<path class="st0" d="M59.455,14.333c-1.91,0-2.887,0.797-3.774,1.955v8.784c0.932,1.286,2.353,2,4.128,2
		c2.353,0,3.64-2.038,3.64-5.948C63.448,16.327,61.847,14.333,59.455,14.333z"/>
	<path class="st0" d="M179.946,26.789c-1.428,0-2.514,1.087-2.514,2.514c0,1.434,1.087,2.514,2.514,2.514
		c1.428,0,2.514-1.087,2.514-2.514C182.46,27.869,181.373,26.789,179.946,26.789z M181.386,30.91h-0.797l-0.598-1.222h-0.579v1.222
		h-0.701v-3.337h1.55c0.643,0,1.145,0.341,1.145,1.048c-0.007,0.579-0.309,0.842-0.662,0.977L181.386,30.91z"/>
	<path class="st0" d="M180.209,28.216h-0.797v0.855h0.797c0.302,0,0.476-0.154,0.476-0.431
		C180.685,28.345,180.505,28.216,180.209,28.216z"/>
	<path class="st1" d="M25.155,11.137c0-6.61-4.836-9.851-10.694-9.851H0v31.058h6.212V21.162h6.257l5.543,11.182h7.144l-5.948-12.07
		C23.162,18.725,25.155,15.799,25.155,11.137z M14.333,15.304H6.212V7.318h8.121c2.746,0,4.437,1.157,4.437,3.948
		C18.77,13.973,17.214,15.304,14.333,15.304z"/>
	<path class="st1" d="M60.606,8.565c-2.218,0-3.774,0.932-4.926,1.955V9.054h-6.122V40.91l6.122-3.061v-6.836
		c1.112,1.022,2.887,1.82,4.926,1.82c5.768,0,9.054-4.881,9.054-11.845C69.66,12.295,65.576,8.565,60.606,8.565z M59.808,27.072
		c-1.775,0-3.196-0.714-4.128-2v-8.784c0.887-1.157,1.865-1.955,3.774-1.955c2.392,0,3.993,1.993,3.993,6.79
		C63.448,25.033,62.162,27.072,59.808,27.072z"/>
	<rect x="72.502" y="9.054" class="st1" width="6.122" height="23.291"/>
	<path class="st1" d="M75.563,0.135c-1.91,0-3.505,1.595-3.505,3.504s1.595,3.505,3.505,3.505c1.903,0,3.504-1.601,3.504-3.505
		C79.067,1.73,77.472,0.135,75.563,0.135z"/>
	<path class="st1" d="M95.349,10.385c-1.112-1.022-2.887-1.82-4.926-1.82c-5.768,0-9.054,4.881-9.054,11.845
		c0,8.694,4.083,12.423,9.054,12.423c2.219,0,3.775-0.932,4.926-1.955v1.466h6.122V0l-6.122,3.061V10.385z M95.349,25.117
		c-0.887,1.157-1.865,1.955-3.775,1.955c-2.398,0-3.993-2-3.993-6.79c0-3.91,1.286-5.948,3.64-5.948
		c1.775,0,3.196,0.707,4.128,1.993V25.117z"/>
	<path class="st2" d="M118.241,13.362c-4.926-1.157-6.257-1.775-6.257-3.73c0-1.376,1.112-2.797,4.437-2.797
		c2.842,0,5.061,1.158,7.054,3.196l4.482-4.347c-2.926-3.061-6.475-4.881-11.311-4.881c-6.122,0-11.092,3.459-11.092,9.092
		c0,6.122,3.993,7.941,9.716,9.272c5.852,1.331,6.919,2.219,6.919,4.218c0,2.347-1.73,3.369-5.414,3.369
		c-2.971,0-5.768-1.022-7.941-3.55l-4.482,3.993c2.353,3.46,6.88,5.633,12.07,5.633c8.475,0,12.205-3.993,12.205-9.89
		C128.625,16.204,123.166,14.513,118.241,13.362z"/>
	<path class="st2" d="M143.801,13.362c-4.926-1.157-6.257-1.775-6.257-3.73c0-1.376,1.106-2.797,4.437-2.797
		c2.842,0,5.054,1.158,7.054,3.196l4.482-4.347c-2.926-3.061-6.475-4.881-11.311-4.881c-6.122,0-11.092,3.459-11.092,9.092
		c0,6.122,3.993,7.941,9.716,9.272c5.852,1.331,6.919,2.219,6.919,4.218c0,2.347-1.73,3.369-5.414,3.369
		c-2.971,0-5.768-1.022-7.941-3.55l-4.482,3.993c2.353,3.46,6.88,5.633,12.07,5.633c8.475,0,12.198-3.993,12.205-9.89
		C154.186,16.204,148.727,14.513,143.801,13.362z"/>
	<polygon class="st2" points="164.744,26.223 164.744,1.286 158.533,1.286 158.533,32.345 175.355,32.345 171.779,26.223 	"/>
	<path class="st1" d="M36.601,8.565c-2.546,0-4.405,0.373-6.173,1.087v5.414c2.013-1.061,3.479-1.44,6.173-1.44
		c2.219,0,3.324,1.331,3.324,2.971v1.151c-0.977-0.489-2.353-0.932-4.482-0.932c-5.279,0-9.452,2.572-9.452,7.723
		c0,5.633,4.347,8.295,8.694,8.295c2.173,0,4.128-0.887,5.234-2.038v1.556h6.122V16.725C46.054,11.491,42.241,8.565,36.601,8.565z
		 M39.932,25.509c-0.662,1.112-2.264,2.129-4.257,2.129c-2.617,0-3.549-1.466-3.549-3.106c0-1.865,1.241-2.926,3.549-2.926
		c2.174,0,3.196,0.309,4.257,0.977V25.509z"/>
	<path class="st2" d="M179.946,26.248c-1.736,0-3.054,1.318-3.054,3.054c0,1.736,1.318,3.055,3.054,3.055
		c1.736,0,3.054-1.318,3.054-3.055C183,27.567,181.682,26.248,179.946,26.248z M179.946,31.817c-1.428,0-2.514-1.08-2.514-2.514
		c0-1.428,1.087-2.514,2.514-2.514c1.428,0,2.514,1.08,2.514,2.514C182.46,30.731,181.373,31.817,179.946,31.817z"/>
	<path class="st2" d="M181.405,28.621c0-0.707-0.502-1.048-1.145-1.048h-1.55v3.337h0.701v-1.222h0.579l0.598,1.222h0.797
		l-0.643-1.312C181.097,29.464,181.399,29.2,181.405,28.621z M180.209,29.071h-0.797v-0.855h0.797c0.296,0,0.476,0.129,0.476,0.424
		C180.685,28.917,180.512,29.071,180.209,29.071z"/>
</g>
</svg>
