<?xml version="1.0" encoding="utf-8"?>
<!-- Generator: Adobe Illustrator 24.0.1, SVG Export Plug-In . SVG Version: 6.00 Build 0)  -->
<svg version="1.1" id="Layer_1" xmlns="http://www.w3.org/2000/svg" xmlns:xlink="http://www.w3.org/1999/xlink" x="0px" y="0px"
	 width="142.264px" height="43.57px" viewBox="0 0 142.264 43.57" style="enable-background:new 0 0 142.264 43.57;"
	 xml:space="preserve">
<style type="text/css">
	.st0{fill:#005B99;}
	.st1{fill:#DB1F28;}
	.st2{fill:#1A74BB;}
	.st3{fill:#707F86;}
</style>
<g>
	<g>
		<g>
			<path class="st0" d="M64.769,12.867c-0.823-0.438-1.933-0.748-3.263-0.748c-3.123,0-5.001,1.467-5.766,2.06l1.125-6.64h-4.42
				L49.37,25.707h4.42l1.678-9.906c1.106-0.85,2.46-1.571,3.921-1.571c0.763,0,1.422,0.23,1.856,0.617
				c0.81,0.719,0.659,1.801,0.449,3.036l-1.325,7.824h4.42l1.478-8.725C66.46,15.825,66.77,13.998,64.769,12.867z M76.476,11.964
				c-5.05,0-6.763,2.266-7.709,3.527l1.055,0.438c0.782-0.695,2.192-1.956,5.016-1.956c1.263,0,3.1,0.334,3.663,1.724
				c0.219,0.549,0.213,1.137,0.159,1.714h0.094l-0.695,4.091h-0.076l-0.259,1.527c-0.938,0.438-2.088,0.953-3.65,0.953
				c-2.226,0-2.853-1.21-2.66-2.341c0.283-1.673,2.147-2.47,4.106-2.47c0.602,0,1.118,0.066,1.593,0.166l0.325-1.913
				c-0.812-0.17-1.635-0.289-2.736-0.289c-3.954,0-7.465,1.699-7.979,4.735c-0.4,2.366,1.478,4.22,4.933,4.22
				c3.157,0,5.035-1.286,5.868-1.879l-0.251,1.493h4.284l1.348-7.952c0.204-1.208,0.466-2.959-0.97-4.273
				C81.102,12.712,79.367,11.964,76.476,11.964z M115.236,24.575c-0.332,0-1.66,0-2.262-1.157c-0.259-0.438-0.366-0.978-0.177-2.084
				l1.016-6.004h4.83l0.474-2.796h-4.83l0.606-3.578h-4.42l-0.606,3.578h-4.65l-4.035,6.561l-0.708,1.237
				c-0.247-0.697-0.261-0.823-0.489-1.442l-2.313-6.357H96.21l-5.736,7.771c-0.123-0.644-0.164-0.799-0.296-1.39l-1.711-6.382h-4.62
				l4.067,13.278h1.627l5.785-7.667l3.187,7.667h1.595l6.837-10.48h2.445l-1.106,6.544c-0.196,1.157-0.227,2.317,0.846,3.242
				c1.125,1.003,2.874,1.08,3.67,1.08c2.194,0,3.489-0.593,4.565-1.055l-0.393-0.823C116.421,24.446,115.932,24.575,115.236,24.575z
				 M124.368,17.447c-0.059,0.089-0.187,0.364-0.332,1.227c-0.059,0.336-0.089,0.589-0.102,0.782h11.793
				c0.21-1.442,0.591-3.887-1.454-5.74c-1.792-1.595-4.418-1.777-5.881-1.777c-6.015,0-9.737,3.14-10.39,7.001
				c-0.683,4.04,1.986,7.307,8.1,7.307c5.847,0,7.669-2.702,8.643-4.142l-1.027-0.412c-1.359,1.157-2.794,2.368-5.883,2.368
				c-4.505,0-5.107-2.67-5.188-4.046c-0.021-0.053-0.096-0.329,0.053-1.242c0.153-0.933,0.349-1.29,0.389-1.356
				c0.716-1.512,1.673-3.315,4.839-3.315c3.323,0,3.323,2.162,3.321,3.346L124.368,17.447L124.368,17.447z M45.713,8.955h-4.42
				l-2.188,12.918c-0.196,1.157-0.227,2.317,0.846,3.242c1.127,1.003,2.874,1.08,3.672,1.08c2.192,0,3.489-0.593,4.565-1.055
				l-0.393-0.823c-0.553,0.128-1.04,0.257-1.737,0.257c-0.332,0-1.661,0-2.264-1.157c-0.259-0.438-0.366-0.978-0.179-2.084
				l1.018-6.004h3.576l0.47-2.777h-3.576L45.713,8.955z"/>
			<path class="st1" d="M16.894,0C7.563,0,0,7.563,0,16.892s7.563,16.892,16.894,16.892s16.894-7.563,16.894-16.892
				S26.225,0,16.894,0z M16.894,30.427c-7.477,0-13.537-6.061-13.537-13.535S9.417,3.357,16.894,3.357s13.537,6.061,13.537,13.535
				C30.431,24.369,24.371,30.427,16.894,30.427z M18.529,8.651h-4.42l-2.186,12.918c-0.196,1.157-0.227,2.317,0.846,3.242
				c1.125,1.004,2.874,1.08,3.672,1.08c2.194,0,3.489-0.591,4.565-1.055l-0.393-0.823c-0.553,0.128-1.04,0.259-1.739,0.259
				c-0.332,0-1.661,0-2.262-1.159c-0.259-0.438-0.366-0.978-0.177-2.084l1.016-6.006h3.576l0.47-2.779h-3.576L18.529,8.651z"/>
			<path class="st0" d="M137.984,10.188h-1.108v2.864h-0.919v-2.864h-1.108V9.499h3.138v0.689H137.984z M142.263,13.052h-0.919
				v-2.381l-0.655,1.544h-0.631l-0.655-1.544v2.381h-0.865V9.499h1.067l0.797,1.784l0.793-1.784h1.071v3.553H142.263z"/>
		</g>
	</g>
	<g>
		<g>
			<path class="st2" d="M98.047,38.152c0-0.936,0.249-1.687,0.749-2.252c0.499-0.565,1.143-0.848,1.931-0.848
				c0.257,0,0.495,0.031,0.714,0.094c0.218,0.063,0.392,0.14,0.521,0.234c0.129,0.094,0.242,0.187,0.339,0.281
				c0.097,0.094,0.166,0.172,0.205,0.234l0.047,0.094h0.023c-0.016-0.117-0.023-0.25-0.023-0.398v-2.738h1.135v8.261h-1.076v-0.562
				l0.012-0.398h-0.023c-0.016,0.031-0.037,0.07-0.064,0.117c-0.027,0.047-0.094,0.135-0.199,0.263
				c-0.105,0.129-0.226,0.242-0.363,0.339c-0.137,0.098-0.322,0.185-0.556,0.263c-0.234,0.078-0.488,0.117-0.761,0.117
				c-0.796,0-1.43-0.285-1.901-0.854C98.283,39.83,98.047,39.081,98.047,38.152z M99.205,38.152c0,0.64,0.154,1.153,0.462,1.539
				c0.308,0.386,0.712,0.579,1.211,0.579c0.484,0,0.889-0.177,1.217-0.532c0.328-0.355,0.491-0.887,0.491-1.597
				c0-0.569-0.146-1.063-0.439-1.48c-0.292-0.417-0.704-0.626-1.234-0.626c-0.484,0-0.889,0.189-1.217,0.567
				C99.369,36.98,99.205,37.497,99.205,38.152z"/>
			<path class="st2" d="M104.644,34.01v-1.158h1.147v1.158H104.644z M104.656,41.113v-5.921h1.135v5.921H104.656z"/>
			<path class="st2" d="M107.522,42.189c0.491,0.265,1.034,0.398,1.626,0.398c0.562,0,1.014-0.135,1.357-0.404
				c0.343-0.269,0.515-0.689,0.515-1.258v-0.433l0.012-0.374h-0.023c-0.367,0.616-0.952,0.924-1.755,0.924
				c-0.804,0-1.445-0.287-1.925-0.86c-0.48-0.573-0.72-1.297-0.72-2.171c0-0.874,0.23-1.586,0.69-2.135
				c0.46-0.55,1.092-0.825,1.896-0.825c0.265,0,0.511,0.029,0.737,0.088c0.226,0.059,0.406,0.133,0.538,0.222
				c0.133,0.09,0.246,0.178,0.339,0.263c0.094,0.086,0.156,0.16,0.187,0.222l0.059,0.082h0.023
				c-0.008-0.054-0.012-0.117-0.012-0.187v-0.55h1.088v5.675c0,0.468-0.084,0.881-0.252,1.24c-0.168,0.359-0.396,0.642-0.685,0.848
				c-0.289,0.207-0.605,0.361-0.948,0.462c-0.343,0.101-0.71,0.152-1.1,0.152c-0.71,0-1.385-0.164-2.024-0.491L107.522,42.189z
				 M109.476,40.06c0.46,0,0.837-0.16,1.129-0.48c0.293-0.32,0.439-0.838,0.439-1.556c0-1.326-0.558-1.989-1.673-1.989
				c-0.507,0-0.903,0.174-1.188,0.521c-0.285,0.347-0.427,0.825-0.427,1.433c0,0.624,0.154,1.125,0.462,1.504
				C108.526,39.871,108.946,40.06,109.476,40.06z"/>
			<path class="st2" d="M113.09,34.01v-1.158h1.147v1.158H113.09z M113.101,41.113v-5.921h1.135v5.921H113.101z"/>
			<path class="st2" d="M115.067,38.152c0-0.881,0.298-1.619,0.895-2.212c0.597-0.593,1.355-0.889,2.276-0.889
				c0.437,0,0.84,0.072,1.211,0.216c0.37,0.144,0.634,0.291,0.79,0.439l0.222,0.211l-0.538,0.796
				c-0.047-0.047-0.115-0.109-0.205-0.187c-0.09-0.078-0.277-0.179-0.562-0.304c-0.285-0.125-0.575-0.187-0.872-0.187
				c-0.593,0-1.084,0.199-1.474,0.597c-0.39,0.398-0.585,0.901-0.585,1.509c0,0.608,0.197,1.116,0.591,1.521
				c0.394,0.406,0.895,0.608,1.504,0.608c0.328,0,0.644-0.066,0.948-0.199c0.304-0.133,0.526-0.265,0.667-0.398l0.211-0.199
				l0.456,0.831c-0.023,0.023-0.057,0.057-0.1,0.099c-0.043,0.043-0.139,0.119-0.287,0.228c-0.148,0.109-0.308,0.205-0.48,0.287
				c-0.172,0.082-0.392,0.158-0.661,0.228c-0.269,0.07-0.548,0.105-0.837,0.105c-0.928,0-1.689-0.293-2.282-0.878
				C115.363,39.79,115.067,39.049,115.067,38.152z"/>
			<path class="st2" d="M120.742,38.152c0-0.928,0.279-1.677,0.837-2.247c0.558-0.569,1.265-0.854,2.124-0.854
				c0.803,0,1.431,0.261,1.884,0.784c0.452,0.523,0.679,1.186,0.679,1.989l-0.035,0.491h-4.318c0.031,0.624,0.24,1.106,0.626,1.445
				c0.386,0.339,0.856,0.509,1.41,0.509c0.304,0,0.603-0.059,0.895-0.176c0.293-0.117,0.509-0.23,0.649-0.339l0.211-0.176
				l0.468,0.831c-0.063,0.063-0.156,0.14-0.281,0.234c-0.125,0.094-0.386,0.218-0.784,0.374c-0.398,0.156-0.807,0.234-1.229,0.234
				c-0.921,0-1.673-0.294-2.258-0.883C121.035,39.781,120.742,39.042,120.742,38.152z M121.948,37.462h3.159
				c-0.016-0.491-0.158-0.866-0.427-1.123c-0.269-0.257-0.603-0.386-1-0.386c-0.445,0-0.825,0.133-1.141,0.398
				C122.223,36.616,122.026,36.986,121.948,37.462z"/>
			<path class="st2" d="M127.084,41.113v-5.921h1.1v1.03l-0.023,0.445h0.023c0.14-0.452,0.376-0.823,0.708-1.112
				c0.331-0.289,0.72-0.433,1.164-0.433l0.293,0.023v1.123c-0.101-0.023-0.211-0.035-0.328-0.035c-0.367,0-0.702,0.125-1.006,0.374
				c-0.304,0.25-0.523,0.589-0.655,1.018c-0.094,0.304-0.14,0.659-0.14,1.065v2.422H127.084z"/>
			<path class="st2" d="M131.801,38.948v-2.761h-0.772v-0.913h0.807v-1.708h1.1v1.708h1.428v0.913h-1.428v2.633
				c0,0.226,0.031,0.423,0.094,0.591c0.062,0.168,0.139,0.298,0.228,0.392c0.089,0.094,0.195,0.168,0.316,0.222
				c0.121,0.055,0.23,0.09,0.328,0.105c0.097,0.016,0.197,0.023,0.298,0.023l0.269-0.023v1.006
				c-0.109,0.016-0.242,0.023-0.398,0.023c-0.187,0-0.367-0.012-0.538-0.035c-0.172-0.023-0.367-0.082-0.585-0.176
				c-0.218-0.094-0.408-0.216-0.567-0.369c-0.16-0.152-0.297-0.369-0.409-0.649C131.858,39.65,131.801,39.322,131.801,38.948z"/>
			<path class="st2" d="M135.096,32.837c-0.476,0-0.857,0.383-0.857,0.858c0,0.472,0.382,0.856,0.857,0.856
				c0.474,0,0.858-0.384,0.858-0.856C135.954,33.22,135.57,32.837,135.096,32.837 M135.096,34.384c-0.382,0-0.689-0.309-0.689-0.689
				c0-0.381,0.308-0.69,0.689-0.69c0.381,0,0.688,0.309,0.688,0.69C135.785,34.075,135.477,34.384,135.096,34.384"/>
			<g>
				<path class="st2" d="M134.8,34.167V33.22h0.29c0.08,0,0.139,0.007,0.177,0.022c0.049,0.018,0.088,0.05,0.117,0.095
					c0.029,0.046,0.043,0.099,0.043,0.161c0,0.061-0.015,0.114-0.046,0.161c-0.031,0.047-0.072,0.078-0.124,0.095v0.003
					c0.007,0.008,0.016,0.022,0.028,0.043l0.201,0.368h-0.15l-0.2-0.377h-0.203v0.377H134.8z M134.933,33.675h0.191
					c0.052,0,0.093-0.015,0.123-0.046c0.03-0.031,0.045-0.073,0.045-0.125c0-0.07-0.025-0.119-0.075-0.146
					c-0.027-0.014-0.07-0.021-0.13-0.021h-0.153V33.675z"/>
			</g>
		</g>
	</g>
	<g>
		<g>
			<path class="st3" d="M43.969,38.31c0,0.888-0.203,1.604-0.609,2.147c-0.407,0.543-0.957,0.815-1.651,0.815
				c-0.709,0-1.266-0.225-1.672-0.674v2.811h-0.998v-8.081h0.912l0.049,0.647c0.406-0.503,0.971-0.755,1.694-0.755
				c0.701,0,1.256,0.264,1.664,0.793c0.408,0.529,0.612,1.264,0.612,2.206V38.31z M42.971,38.196c0-0.658-0.14-1.178-0.421-1.559
				c-0.281-0.381-0.665-0.572-1.154-0.572c-0.604,0-1.057,0.268-1.359,0.804v2.789c0.298,0.532,0.755,0.798,1.37,0.798
				c0.478,0,0.859-0.19,1.141-0.569C42.83,39.508,42.971,38.944,42.971,38.196z"/>
			<path class="st3" d="M44.918,38.191c0-0.572,0.112-1.086,0.337-1.543c0.225-0.457,0.538-0.809,0.939-1.057
				c0.401-0.248,0.858-0.372,1.373-0.372c0.795,0,1.438,0.275,1.929,0.825s0.736,1.282,0.736,2.196v0.07
				c0,0.568-0.109,1.078-0.326,1.529c-0.218,0.451-0.529,0.803-0.933,1.055c-0.405,0.252-0.87,0.378-1.395,0.378
				c-0.791,0-1.432-0.275-1.923-0.825c-0.491-0.55-0.736-1.279-0.736-2.185V38.191z M45.921,38.31c0,0.647,0.15,1.167,0.45,1.559
				c0.3,0.392,0.702,0.588,1.206,0.588c0.507,0,0.91-0.199,1.209-0.596c0.298-0.397,0.448-0.954,0.448-1.67
				c0-0.64-0.152-1.159-0.456-1.556c-0.304-0.397-0.708-0.596-1.211-0.596c-0.493,0-0.89,0.196-1.192,0.588
				C46.072,37.019,45.921,37.58,45.921,38.31z"/>
			<path class="st3" d="M56.596,39.788l1.122-4.461h0.998l-1.699,5.837h-0.809l-1.419-4.424l-1.381,4.424h-0.809l-1.694-5.837h0.993
				l1.149,4.37l1.359-4.37h0.804L56.596,39.788z"/>
			<path class="st3" d="M62.097,41.271c-0.791,0-1.435-0.26-1.931-0.78c-0.496-0.52-0.745-1.215-0.745-2.085v-0.183
				c0-0.579,0.111-1.096,0.332-1.551c0.221-0.455,0.53-0.811,0.928-1.068c0.397-0.257,0.828-0.386,1.292-0.386
				c0.759,0,1.349,0.25,1.769,0.75c0.421,0.5,0.631,1.216,0.631,2.147v0.415h-3.954c0.014,0.575,0.183,1.04,0.504,1.394
				c0.322,0.354,0.731,0.531,1.227,0.531c0.353,0,0.651-0.072,0.896-0.216c0.245-0.144,0.459-0.334,0.642-0.572l0.61,0.475
				C63.809,40.895,63.075,41.271,62.097,41.271z M61.973,36.038c-0.403,0-0.741,0.147-1.014,0.44
				c-0.273,0.293-0.442,0.704-0.507,1.233h2.924v-0.076c-0.029-0.507-0.165-0.9-0.41-1.179
				C62.721,36.178,62.39,36.038,61.973,36.038z"/>
			<path class="st3" d="M68.294,36.222c-0.151-0.025-0.315-0.038-0.491-0.038c-0.655,0-1.099,0.279-1.332,0.836v4.143h-0.998v-5.837
				h0.971l0.016,0.674c0.327-0.521,0.791-0.782,1.392-0.782c0.194,0,0.342,0.025,0.442,0.076V36.222z"/>
			<path class="st3" d="M71.578,41.271c-0.791,0-1.435-0.26-1.931-0.78c-0.496-0.52-0.745-1.215-0.745-2.085v-0.183
				c0-0.579,0.111-1.096,0.332-1.551c0.221-0.455,0.53-0.811,0.928-1.068c0.397-0.257,0.828-0.386,1.292-0.386
				c0.759,0,1.349,0.25,1.769,0.75c0.421,0.5,0.631,1.216,0.631,2.147v0.415H69.9c0.014,0.575,0.183,1.04,0.504,1.394
				c0.322,0.354,0.731,0.531,1.227,0.531c0.353,0,0.651-0.072,0.896-0.216c0.245-0.144,0.459-0.334,0.642-0.572l0.61,0.475
				C73.29,40.895,72.556,41.271,71.578,41.271z M71.454,36.038c-0.403,0-0.741,0.147-1.014,0.44
				c-0.273,0.293-0.442,0.704-0.507,1.233h2.924v-0.076c-0.029-0.507-0.165-0.9-0.41-1.179
				C72.202,36.178,71.871,36.038,71.454,36.038z"/>
			<path class="st3" d="M74.711,38.196c0-0.896,0.212-1.616,0.637-2.161c0.424-0.545,0.98-0.817,1.667-0.817
				c0.683,0,1.225,0.234,1.624,0.701v-3.043h0.998v8.286H78.72l-0.049-0.626c-0.399,0.489-0.955,0.734-1.667,0.734
				c-0.676,0-1.227-0.277-1.654-0.831c-0.426-0.554-0.639-1.277-0.639-2.169V38.196z M75.709,38.31c0,0.662,0.137,1.18,0.41,1.554
				c0.273,0.374,0.651,0.561,1.133,0.561c0.633,0,1.095-0.284,1.387-0.852v-2.681c-0.299-0.55-0.757-0.825-1.376-0.825
				c-0.489,0-0.87,0.189-1.144,0.566C75.846,37.01,75.709,37.569,75.709,38.31z"/>
			<path class="st3" d="M88.751,38.31c0,0.892-0.205,1.609-0.615,2.15c-0.41,0.541-0.96,0.812-1.651,0.812
				c-0.737,0-1.307-0.261-1.71-0.782l-0.049,0.674H83.81v-8.286h0.998v3.091c0.403-0.5,0.958-0.75,1.667-0.75
				c0.708,0,1.265,0.268,1.67,0.804c0.405,0.536,0.607,1.27,0.607,2.201V38.31z M87.753,38.196c0-0.68-0.131-1.205-0.394-1.575
				c-0.263-0.37-0.64-0.556-1.133-0.556c-0.658,0-1.131,0.306-1.419,0.917v2.525c0.306,0.611,0.782,0.917,1.429,0.917
				c0.478,0,0.851-0.185,1.117-0.556C87.62,39.498,87.753,38.941,87.753,38.196z"/>
			<path class="st3" d="M91.862,39.701l1.359-4.375h1.068l-2.347,6.738c-0.363,0.971-0.941,1.457-1.732,1.457l-0.189-0.016
				l-0.372-0.07v-0.809l0.27,0.022c0.338,0,0.602-0.068,0.79-0.205c0.189-0.137,0.344-0.387,0.467-0.75l0.221-0.593l-2.082-5.772
				h1.09L91.862,39.701z"/>
		</g>
	</g>
</g>
</svg>
